<svg width="36" height="36" viewBox="0 0 36 36" fill="none" xmlns="http://www.w3.org/2000/svg">
<circle cx="18" cy="18" r="18" fill="black" fill-opacity="0.16"/>
<path d="M17 23.5C17 23.6326 16.9473 23.7598 16.8536 23.8536C16.7598 23.9473 16.6326 24 16.5 24H13C12.7348 24 12.4804 23.8946 12.2929 23.7071C12.1054 23.5196 12 23.2652 12 23V13C12 12.7348 12.1054 12.4804 12.2929 12.2929C12.4804 12.1054 12.7348 12 13 12H16.5C16.6326 12 16.7598 12.0527 16.8536 12.1464C16.9473 12.2402 17 12.3674 17 12.5C17 12.6326 16.9473 12.7598 16.8536 12.8536C16.7598 12.9473 16.6326 13 16.5 13H13V23H16.5C16.6326 23 16.7598 23.0527 16.8536 23.1464C16.9473 23.2402 17 23.3674 17 23.5ZM23.8538 17.6462L21.3538 15.1462C21.2838 15.0762 21.1947 15.0286 21.0977 15.0092C21.0006 14.9899 20.9 14.9998 20.8086 15.0377C20.7172 15.0756 20.6391 15.1397 20.5841 15.222C20.5292 15.3043 20.4999 15.4011 20.5 15.5V17.5H16.5C16.3674 17.5 16.2402 17.5527 16.1464 17.6464C16.0527 17.7402 16 17.8674 16 18C16 18.1326 16.0527 18.2598 16.1464 18.3536C16.2402 18.4473 16.3674 18.5 16.5 18.5H20.5V20.5C20.4999 20.5989 20.5292 20.6957 20.5841 20.778C20.6391 20.8603 20.7172 20.9244 20.8086 20.9623C20.9 21.0002 21.0006 21.0101 21.0977 20.9908C21.1947 20.9714 21.2838 20.9238 21.3538 20.8538L23.8538 18.3538C23.9002 18.3073 23.9371 18.2522 23.9623 18.1915C23.9874 18.1308 24.0004 18.0657 24.0004 18C24.0004 17.9343 23.9874 17.8692 23.9623 17.8085C23.9371 17.7478 23.9002 17.6927 23.8538 17.6462Z" fill="black"/>
</svg>
